<svg id="Layer_1" data-name="Layer 1" xmlns="http://www.w3.org/2000/svg" viewBox="0 0 250 250"><defs><style>.cls-1{fill:#231f20;}</style></defs><title>Zeichenfläche 1aaa</title><path class="cls-1" d="M93.52,137.36a18.05,18.05,0,0,1-5-2A52,52,0,0,0,138,201.17h1.32a25.28,25.28,0,0,0-.64-50.56,28.19,28.19,0,0,1-26.8-19.51A18,18,0,0,1,93.52,137.36Z"/><path class="cls-1" d="M160.87,158.58A31.76,31.76,0,0,0,176,138.84a1.28,1.28,0,0,1,.09-.35c0-.11.07-.3.1-.42a15.14,15.14,0,0,0-29.5-6.79,18.06,18.06,0,0,1-19.58,13.65,25.17,25.17,0,0,0,11.6,2.81A28.21,28.21,0,0,1,160.87,158.58Z"/><path class="cls-1" d="M165.65,117.33a18.05,18.05,0,0,1,5,2,52,52,0,0,0-49.48-65.81h-1.32a25.28,25.28,0,1,0,.65,50.56,28.21,28.21,0,0,1,26.8,19.52A18,18,0,0,1,165.65,117.33Z"/><path class="cls-1" d="M98.3,96.11a31.82,31.82,0,0,0-15.15,19.75,1.13,1.13,0,0,1-.09.34l-.1.43a15.16,15.16,0,0,0,29.55,6.79,18.07,18.07,0,0,1,19.58-13.66A25.24,25.24,0,0,0,120.5,107,28.22,28.22,0,0,1,98.3,96.11Z"/><path class="cls-1" d="M138.5,118.44a12.6,12.6,0,1,0,0,17.82,12.6,12.6,0,0,0,0-17.82Zm-8.34.93a2.27,2.27,0,1,1,0-3.21h0a2.26,2.26,0,0,1,0,3.2Zm7.12,4.17a3.33,3.33,0,1,1,0-4.71,3.33,3.33,0,0,1,0,4.71Z"/></svg>