<?xml version="1.0" standalone="no"?>
<!DOCTYPE svg PUBLIC "-//W3C//DTD SVG 20010904//EN"
 "http://www.w3.org/TR/2001/REC-SVG-20010904/DTD/svg10.dtd">
<svg version="1.0" xmlns="http://www.w3.org/2000/svg"
 width="3000.000000pt" height="3000.000000pt" viewBox="0 0 3000.000000 3000.000000"
 preserveAspectRatio="xMidYMid meet">
<metadata>
Created by potrace 1.11, written by Peter Selinger 2001-2013
</metadata>
<g transform="translate(0.000000,3000.000000) scale(0.100000,-0.100000)"
fill="#000000" stroke="none">
<path d="M5990 23449 c-826 -85 -1608 -530 -2116 -1205 -703 -935 -810 -2163
-279 -3203 462 -904 1356 -1524 2356 -1635 74 -8 231 -17 349 -21 345 -10 540
-34 808 -100 941 -232 1752 -873 2189 -1730 81 -159 154 -329 188 -435 10 -30
21 -59 26 -64 5 -6 24 8 46 35 277 328 674 580 1087 689 160 42 260 59 421 71
385 28 813 -64 1162 -252 l92 -49 16 58 c24 80 80 326 104 457 143 762 139
1593 -10 2350 -156 789 -469 1551 -914 2225 -533 807 -1252 1489 -2090 1979
-181 107 -557 293 -760 377 -204 84 -613 220 -820 273 -370 94 -753 155 -1135
181 -172 12 -600 11 -720 -1z"/>
<path d="M3540 18297 c-296 -184 -496 -342 -730 -576 -297 -298 -506 -585
-698 -959 -127 -247 -228 -513 -297 -777 -51 -198 -60 -270 -59 -485 0 -159 4
-217 22 -314 157 -832 838 -1446 1668 -1505 797 -56 1534 410 1827 1154 19 50
54 159 76 242 106 392 272 694 529 965 336 352 777 579 1272 655 119 18 458
25 513 10 105 -28 -99 77 -283 146 -353 132 -627 182 -1075 197 -299 10 -405
20 -605 56 -771 140 -1484 555 -1989 1157 -40 48 -76 87 -80 87 -3 0 -44 -24
-91 -53z"/>
<path d="M16010 16616 c-86 -23 -158 -83 -202 -166 l-23 -45 -3 -2200 c-2
-2511 -12 -2256 92 -2361 79 -79 132 -98 255 -92 61 3 98 10 127 25 51 27 119
95 147 147 l22 41 3 967 2 967 938 3 c873 3 940 4 983 21 60 23 122 77 156
134 35 61 44 184 18 262 -23 71 -93 141 -168 169 -58 22 -60 22 -992 22 l-935
0 0 755 0 755 1298 2 1297 3 52 24 c74 33 138 104 159 177 46 158 -31 325
-175 381 -43 17 -126 18 -1526 20 -1148 1 -1490 -1 -1525 -11z"/>
<path d="M22113 16611 c-71 -24 -127 -63 -163 -113 -64 -88 -60 72 -58 -2328
l3 -2185 22 -47 c29 -62 91 -128 150 -158 64 -33 198 -40 272 -15 67 22 143
91 178 163 l28 57 3 2174 c2 2393 6 2243 -58 2336 -77 112 -242 163 -377 116z"/>
<path d="M25315 16621 c-93 -23 -180 -102 -210 -190 -23 -71 -17 -189 13 -248
30 -57 85 -111 141 -137 45 -21 56 -21 764 -24 l717 -3 0 -2007 c0 -2293 -10
-2064 94 -2168 79 -79 132 -98 255 -92 61 3 98 10 127 25 51 27 119 95 147
147 l22 41 3 2027 2 2027 718 3 717 3 51 27 c105 55 157 146 158 274 0 68 -4
89 -27 137 -32 63 -80 110 -146 141 l-46 21 -1735 2 c-954 0 -1748 -2 -1765
-6z"/>
<path d="M7270 16109 c-356 -24 -701 -185 -960 -449 -201 -204 -328 -434 -396
-715 -136 -571 81 -1184 547 -1545 591 -457 1425 -418 1963 91 251 238 400
513 462 852 24 127 24 379 0 512 -37 213 -138 452 -263 628 -68 96 -221 253
-313 323 -297 225 -654 329 -1040 303z m107 -118 c57 -26 118 -92 137 -148 81
-238 -160 -446 -378 -325 -120 67 -169 228 -107 350 25 48 98 115 143 129 56
18 158 15 205 -6z m813 -293 c79 -36 153 -107 190 -182 119 -241 -22 -517
-288 -566 -166 -30 -346 68 -420 228 -35 76 -42 196 -17 277 37 117 136 217
250 255 84 28 209 23 285 -12z"/>
<path d="M11020 15513 c-173 -26 -242 -40 -338 -69 -482 -146 -880 -481 -1104
-929 -67 -133 -96 -212 -148 -401 -89 -322 -200 -552 -384 -793 -285 -371
-710 -652 -1170 -772 -206 -53 -290 -63 -548 -64 -130 0 -234 -3 -230 -7 4 -4
57 -29 117 -56 280 -126 547 -204 848 -248 56 -8 226 -19 377 -24 151 -6 320
-15 375 -20 712 -75 1361 -360 1906 -838 125 -110 294 -285 374 -390 22 -28
44 -51 49 -52 27 -1 301 176 446 288 295 227 581 525 797 827 296 415 534 965
619 1430 35 192 28 471 -17 680 -47 218 -169 495 -297 675 -81 115 -258 300
-367 385 -258 202 -557 327 -882 370 -102 13 -357 18 -423 8z"/>
<path d="M5141 14019 c-196 -205 -363 -329 -612 -453 -606 -302 -1306 -300
-1916 4 l-152 76 -20 -76 c-79 -294 -136 -613 -178 -990 -26 -238 -26 -961 0
-1200 89 -821 288 -1500 648 -2210 867 -1714 2486 -2945 4364 -3319 605 -120
1265 -150 1701 -76 607 103 1158 382 1606 813 776 747 1096 1809 862 2862
-175 787 -695 1503 -1399 1927 -350 211 -761 355 -1160 408 -66 9 -242 20
-392 25 -463 16 -746 63 -1098 184 -444 152 -815 370 -1180 695 -391 348 -740
868 -905 1351 -18 52 -36 98 -39 102 -3 3 -62 -52 -130 -123z"/>
</g>
</svg>
